<?xml version="1.0" encoding="UTF-8"?><svg id="Layer_2" xmlns="http://www.w3.org/2000/svg" viewBox="0 0 41.39 41.39"><defs><style>.cls-1{fill:none;stroke:#fff;stroke-linecap:round;stroke-linejoin:round;}.cls-2{fill:#1a1a1a;}</style></defs><g id="Layer_1-2"><g><path class="cls-2" d="M34.49,0H6.9C3.06,.03-.02,3.16,0,7V27.98c-.02,3.84,3.06,6.97,6.9,7h5.04l6.46,5.52c1.28,1.17,3.24,1.19,4.54,.04l6.63-5.56h4.92c3.84-.03,6.92-3.16,6.9-7V7c.02-3.84-3.06-6.96-6.9-7Z"/><g><path class="cls-1" d="M18.46,6.38h4.47c1.1,0,2,.9,2,2v.82h-8.47v-.82c0-1.1,.9-2,2-2Z"/><polyline class="cls-1" points="26.81 8.27 28.7 8.27 28.7 28.03 12.7 28.03 12.7 8.27 14.58 8.27"/><polyline class="cls-1" points="14.58 14.85 16.46 16.74 19.28 13.91"/><line class="cls-1" x1="22.11" y1="15.8" x2="25.87" y2="15.8"/><polyline class="cls-1" points="14.58 20.5 16.46 22.38 19.28 19.56"/><line class="cls-1" x1="22.11" y1="21.44" x2="25.87" y2="21.44"/></g></g></g></svg>